HIERARCHY
ROOT RootJoint
{
    OFFSET   0.000000   0.000000   0.000000
    CHANNELS 6 Xposition Yposition Zposition Xrotation Yrotation Zrotation
    JOINT pelvis_lowerback
    {
        OFFSET   0.000000   0.093605   0.000000
        CHANNELS 3 Xrotation Yrotation Zrotation
        JOINT lowerback_torso
        {
            OFFSET   0.000000   0.100000   0.000000
            CHANNELS 3 Xrotation Yrotation Zrotation
            JOINT torso_head
            {
                OFFSET   0.000000   0.282350   0.000000
                CHANNELS 3 Xrotation Yrotation Zrotation
                End Site
                {
                    OFFSET   0.000000   0.192650   0.000000
                }
            }
            JOINT rTorso_Clavicle
            {
                OFFSET  -0.001000   0.157500   0.000000
                CHANNELS 3 Xrotation Yrotation Zrotation
                JOINT rShoulder
                {
                    OFFSET  -0.117647   0.000000   0.000000
                    CHANNELS 3 Xrotation Yrotation Zrotation
                    JOINT rElbow
                    {
                        OFFSET  -0.245000   0.000000   0.000000
                        CHANNELS 3 Xrotation Yrotation Zrotation
                        JOINT rWrist
                        {
                            OFFSET  -0.240000   0.000000   0.000000
                            CHANNELS 3 Xrotation Yrotation Zrotation
                            End Site
                            {
                                OFFSET  -0.116353  -0.002500   0.000000
                            }
                        }
                    }
                }
            }
            JOINT lTorso_Clavicle
            {
                OFFSET   0.001000   0.157500   0.000000
                CHANNELS 3 Xrotation Yrotation Zrotation
                JOINT lShoulder
                {
                    OFFSET   0.117647   0.000000   0.000000
                    CHANNELS 3 Xrotation Yrotation Zrotation
                    JOINT lElbow
                    {
                        OFFSET   0.245000   0.000000   0.000000
                        CHANNELS 3 Xrotation Yrotation Zrotation
                        JOINT lWrist
                        {
                            OFFSET   0.240000   0.000000   0.000000
                            CHANNELS 3 Xrotation Yrotation Zrotation
                            End Site
                            {
                                OFFSET   0.116353  -0.002500   0.000000
                            }
                        }
                    }
                }
            }
        }
    }
    JOINT rHip
    {
        OFFSET  -0.100000  -0.051395   0.000000
        CHANNELS 3 Xrotation Yrotation Zrotation
        JOINT rKnee
        {
            OFFSET   0.000000  -0.410000   0.000000
            CHANNELS 3 Xrotation Yrotation Zrotation
            JOINT rAnkle
            {
                OFFSET   0.000000  -0.390000   0.000000
                CHANNELS 3 Xrotation Yrotation Zrotation
                JOINT rToeJoint
                {
                    OFFSET   0.000000  -0.050000   0.130000
                    CHANNELS 3 Xrotation Yrotation Zrotation
                    End Site
                    {
                        OFFSET  -0.010000   0.002000   0.060000
                    }
                }
            }
        }
    }
    JOINT lHip
    {
        OFFSET   0.100000  -0.051395   0.000000
        CHANNELS 3 Xrotation Yrotation Zrotation
        JOINT lKnee
        {
            OFFSET   0.000000  -0.410000   0.000000
            CHANNELS 3 Xrotation Yrotation Zrotation
            JOINT lAnkle
            {
                OFFSET   0.000000  -0.390000   0.000000
                CHANNELS 3 Xrotation Yrotation Zrotation
                JOINT lToeJoint
                {
                    OFFSET   0.000000  -0.050000   0.130000
                    CHANNELS 3 Xrotation Yrotation Zrotation
                    End Site
                    {
                        OFFSET   0.010000   0.002000   0.060000
                    }
                }
            }
        }
    }
}
MOTION
Frames: 12
Frame Time:   0.008333
 -2.376719   0.925631   3.975860   0.000000   0.000000   0.000000   0.000000   0.000000   0.000000   0.000000   0.000000   0.000000   0.000000   0.000000   0.000000   0.000000   0.000000   0.000000   0.000000   0.000000   0.000000   0.000000   0.000000   0.000000   0.000000   0.000000   0.000000   0.000000   0.000000   0.000000   0.000000   0.000000   0.000000   0.000000   0.000000   0.000000   0.000000   0.000000   0.000000   0.000000   0.000000   0.000000   0.000000   0.000000   0.000000   0.000000   0.000000   0.000000   0.000000   0.000000   0.000000   0.000000   0.000000   0.000000   0.000000   0.000000   0.000000   0.000000   0.000000   0.000000   0.000000   0.000000   0.000000
 -2.376518   0.926307   3.976405  -0.468725   0.088664   0.029141   0.366330   0.003983  -0.006609   0.248255  -0.170110   0.009446  -0.058368   0.114756   0.074741   0.266273  -0.366983   0.419389   0.712273   0.227523   2.040211   0.020871   0.955017  -0.009494   0.383493  -0.280147  -2.881040   0.341831   0.314343  -0.629971   0.938359   0.018265  -1.936922   0.022110  -0.993890   0.012514   0.439698   0.173567   2.943255   0.354291  -0.164959  -0.212343   0.763858   0.001221  -0.000517  -0.919923  -0.408269   0.093384  -0.226004  -0.000179   0.000952   0.388026   0.076121   0.106421   0.643775  -0.000752   0.000932  -0.879595   0.366708   0.003092   0.321823  -0.000384   0.001492
 -2.376265   0.927445   3.977213  -0.972060   0.205320   0.064008   0.689815  -0.012349  -0.003783   0.532936  -0.357526   0.019110  -0.084899   0.223642   0.157897   0.527982  -0.717567   1.581617   1.402495   0.490430   4.675498   0.048058   1.876891  -0.016112   0.805822  -0.296124  -5.028766   0.680726   0.596204  -2.035263   1.859782  -0.016288  -4.503592   0.050987  -1.950517   0.021533   0.929119   0.097431   5.129066   0.753098  -0.337256  -0.571818   1.608608   0.003368  -0.000890  -1.778908  -0.798639   0.171907  -0.481407  -0.000704   0.001744   0.837063   0.164521   0.339724   1.359074  -0.002226   0.002069  -1.702532   0.716316   0.013017   0.572869  -0.000896   0.002411
 -2.375999   0.928603   3.978202  -1.445184   0.325752   0.100515   0.960759  -0.039392   0.002202   0.785036  -0.546112   0.027141  -0.107224   0.325195   0.240143   0.780239  -1.035217   3.197091   2.066260   0.785063   7.702709   0.074396   2.739183  -0.019996   1.216934  -0.248345  -6.311147   1.004324   0.832763  -3.898052   2.760470  -0.107941  -7.480897   0.079101  -2.847990   0.027315   1.406949  -0.049358   6.419078   1.143082  -0.505759  -1.042420   2.425933   0.005790  -0.001207  -2.578962  -1.165997   0.238443  -0.719010  -0.001346   0.002238   1.292462   0.256339   0.683675   2.055291  -0.004002   0.003045  -2.469850   1.044644   0.028073   0.797809  -0.001465   0.002997
 -2.375735   0.929460   3.979324  -1.879608   0.437346   0.136953   1.186917  -0.072120   0.007852   0.998323  -0.730602   0.032904  -0.130733   0.419979   0.318812   1.025899  -1.323819   5.066655   2.705276   1.113467  10.992816   0.096796   3.543085  -0.021915   1.610032  -0.186127  -6.945464   1.312748   1.032679  -6.008451   3.643005  -0.258323 -10.730705   0.103151  -3.687622   0.030767   1.866065  -0.222483   7.043651   1.511948  -0.669629  -1.597766   3.196705   0.008119  -0.001559  -3.325571  -1.511133   0.294691  -0.942258  -0.002005   0.002539   1.741485   0.349807   1.118547   2.716618  -0.005805   0.003780  -3.186338   1.352499   0.047356   0.998276  -0.001998   0.003306
 -2.375477   0.929781   3.980542  -2.277669   0.533483   0.172297   1.376142  -0.108068   0.011816   1.177842  -0.908761   0.036202  -0.155081   0.508445   0.392941   1.266419  -1.588920   7.056991   3.319777   1.475110  14.456967   0.114132   4.291342  -0.022477   1.983465  -0.125369  -7.141114   1.606251   1.204659  -8.229129   4.507508  -0.466249 -14.159669   0.121911  -4.471888   0.032599   2.304314  -0.404674   7.221284   1.856761  -0.828352  -2.216832   3.919213   0.010160  -0.001963  -4.022645  -1.835058   0.342083  -1.151773  -0.002614   0.002706   2.180168   0.443907   1.625347   3.341740  -0.007470   0.004277  -3.855541   1.640853   0.070013   1.177346  -0.002450   0.003406
 -2.375279   0.929376   3.981822  -2.644098   0.613615   0.209522   1.535383  -0.144938   0.005303   1.330386  -1.078520   0.019578  -0.179445   0.590798   0.467220   1.503392  -1.836715   9.088794   3.909465   1.867751  18.041284   0.126281   4.986660  -0.022142   2.336737  -0.074454  -7.044515   1.887737   1.357619 -10.529967   5.302815  -0.715175 -17.529112   0.134683  -5.204215   0.033002   2.722123  -0.594220   7.018755   2.177718  -0.981587  -2.881082   4.595421   0.011799  -0.002384  -4.673652  -2.138880   0.381766  -1.348224  -0.003129   0.002775   2.606226   0.537718   2.188171   3.932212  -0.008931   0.004581  -4.480573   1.910617   0.095192   1.337910  -0.002808   0.003363
 -2.375110   0.927474   3.982583  -2.648767   0.602767   0.234314   1.423314  -0.153957   0.048560   1.405987  -1.209814  -0.067424  -0.381973   0.517491   0.464817   1.787233  -1.934332  10.468014   4.550314   2.238488  21.479573   0.135809   5.789742  -0.023466   2.586385  -0.047974  -5.731054   2.280856   1.517027 -11.998963   5.874845  -0.978536 -20.873718   0.143678  -6.029718   0.033420   3.039328  -0.867623   5.724312   2.072009  -1.433421  -3.483660   5.049237   0.011536  -0.004028  -4.775562  -2.523881   0.667938  -1.250235  -0.002227   0.001498   2.719912   0.780891   2.698206   3.943138  -0.007195   0.003690  -4.707057   2.198351   0.022980   1.566506  -0.003130   0.003745
 -2.374973   0.924317   3.983033  -2.611187   0.568212   0.255181   1.353249  -0.153927   0.088736   1.458537  -1.317658  -0.153922  -0.592593   0.441694   0.451048   2.036218  -1.978250  11.554545   5.117957   2.642388  24.554837   0.137338   6.552027  -0.024110   2.835548   0.043858  -4.489296   2.639704   1.644052 -13.143235   6.390162  -1.255820 -23.847410   0.144184  -6.807129   0.033122   3.341074  -1.190698   4.538892   1.909932  -1.872393  -4.025708   5.415843   0.010709  -0.004970  -4.865478  -2.887927   0.933970  -1.119454  -0.001467   0.000238   2.749595   1.011467   3.154985   3.846490  -0.005368   0.002750  -4.921144   2.467809  -0.043090   1.787093  -0.003247   0.003911
 -2.374855   0.920048   3.983298  -2.569410   0.525375   0.272331   1.321126  -0.145191   0.125990   1.520284  -1.407732  -0.232988  -0.788037   0.370366   0.435317   2.253140  -1.991239  12.429483   5.618554   3.060329  27.323395   0.133744   7.271343  -0.024179   3.078700   0.172279  -3.488255   2.965070   1.745995 -14.059561   6.853449  -1.539220 -26.512243   0.139400  -7.535655   0.032196   3.628149  -1.517204   3.613149   1.741262  -2.281601  -4.510726   5.738826   0.009710  -0.005449  -4.948991  -3.228246   1.181729  -0.998665  -0.000930  -0.000655   2.730642   1.224676   3.561856   3.723285  -0.003854   0.001977  -5.122456   2.719089  -0.103787   1.987274  -0.003180   0.003881
 -2.374701   0.918715   3.983957  -2.648592   0.394966   0.832257   1.331552  -0.101856  -0.281517   1.628338  -1.467284  -0.492369  -0.954681   0.304710   0.404339   2.447215  -1.979716  13.433211   6.058189   3.487944  29.953644   0.128727   7.942410  -0.023394   3.313217   0.283886  -2.698231   3.267523   1.839719 -14.978378   7.273167  -1.811047 -28.947154   0.132613  -8.201279   0.030536   3.895656  -1.746338   2.970146   1.695277  -2.657939  -5.428591   6.031251   0.008501  -0.005755  -5.016339  -3.549502   1.409739  -0.812370  -0.000523  -0.001863   2.659220   1.550718   3.015551   4.061940  -0.003069   0.002290  -4.663098   3.055856  -0.425814   2.223584  -0.001933   0.004272
 -2.375046   0.918699   3.984745  -2.700832   0.558297   0.804178   1.308118  -0.160940  -0.154304   1.715676  -1.589873  -0.565068  -1.110924   0.239348   0.375101   2.647040  -1.999938  14.254220   6.463341   3.879218  32.353320   0.121429   8.561426  -0.022420   3.532291   0.375190  -1.940697   3.536894   1.904996 -15.857641   7.645398  -2.104264 -31.270652   0.124687  -8.835786   0.028128   4.154094  -2.015220   2.309522   1.650485  -2.805695  -5.412871   6.381701   0.006809  -0.004638  -5.167551  -3.585317   1.800356  -0.758910  -0.000593  -0.001508   2.648349   1.736132   3.118147   4.216515  -0.002502   0.002318  -4.697732   3.272230  -0.505063   2.462771  -0.001468   0.004608
